<mxfile host="app.diagrams.net" modified="2022-01-29T04:56:31.209Z" agent="5.0 (Windows NT 10.0; Win64; x64) AppleWebKit/537.36 (KHTML, like Gecko) Chrome/97.0.4692.99 Safari/537.36" etag="2sq5tGxt4A-NHPEEJMI6" version="16.5.2" type="github">
  <diagram id="yDlQqX4NMxVAkaXIl09R" name="Page-1">
    <mxGraphModel dx="526" dy="833" grid="1" gridSize="10" guides="1" tooltips="1" connect="1" arrows="1" fold="1" page="1" pageScale="1" pageWidth="827" pageHeight="1169" math="0" shadow="0">
      <root>
        <mxCell id="0" />
        <mxCell id="1" parent="0" />
        <mxCell id="BThvKviPsCQtGSirkgmr-1" value="运营控制台" style="rounded=0;whiteSpace=wrap;html=1;" vertex="1" parent="1">
          <mxGeometry x="160" y="640" width="120" height="60" as="geometry" />
        </mxCell>
        <mxCell id="BThvKviPsCQtGSirkgmr-2" value="&lt;span style=&quot;color: rgb(51 , 51 , 51) ; font-family: &amp;#34;tahoma&amp;#34; , &amp;#34;microsoft yahei&amp;#34; , , , &amp;#34;malgun gothic&amp;#34; , sans-serif ; font-size: 13.6px ; line-height: 16.8px ; text-align: left ; background-color: rgb(255 , 255 , 255)&quot;&gt;FinanceManager&lt;br&gt;（财务管理）&lt;br&gt;&lt;/span&gt;" style="rounded=0;whiteSpace=wrap;html=1;" vertex="1" parent="1">
          <mxGeometry x="40" y="360" width="120" height="60" as="geometry" />
        </mxCell>
        <mxCell id="BThvKviPsCQtGSirkgmr-4" value="&lt;span style=&quot;color: rgb(51 , 51 , 51) ; font-family: &amp;#34;tahoma&amp;#34; , &amp;#34;microsoft yahei&amp;#34; , , , &amp;#34;malgun gothic&amp;#34; , sans-serif ; font-size: 13.6px ; line-height: 16.8px ; text-align: left ; background-color: rgb(255 , 255 , 255)&quot;&gt;&lt;span style=&quot;font-family: &amp;#34;tahoma&amp;#34; , &amp;#34;microsoft yahei&amp;#34; , , , &amp;#34;malgun gothic&amp;#34; , sans-serif ; font-size: 13.6px ; line-height: 16.8px&quot;&gt;GoodsManager&lt;/span&gt;&lt;br&gt;（商品经销存）&lt;br&gt;&lt;/span&gt;" style="rounded=0;whiteSpace=wrap;html=1;" vertex="1" parent="1">
          <mxGeometry x="240" y="360" width="120" height="60" as="geometry" />
        </mxCell>
        <mxCell id="BThvKviPsCQtGSirkgmr-5" value="&lt;span style=&quot;color: rgb(51 , 51 , 51) ; font-family: &amp;#34;tahoma&amp;#34; , &amp;#34;microsoft yahei&amp;#34; , , , &amp;#34;malgun gothic&amp;#34; , sans-serif ; font-size: 13.6px ; line-height: 16.8px ; text-align: left ; background-color: rgb(255 , 255 , 255)&quot;&gt;Account&lt;br&gt;（账号&amp;amp;权限）&lt;br&gt;&lt;/span&gt;" style="rounded=0;whiteSpace=wrap;html=1;" vertex="1" parent="1">
          <mxGeometry x="40" y="520" width="120" height="60" as="geometry" />
        </mxCell>
        <mxCell id="BThvKviPsCQtGSirkgmr-6" value="DataService&lt;br&gt;数据与监控" style="rounded=0;whiteSpace=wrap;html=1;" vertex="1" parent="1">
          <mxGeometry x="400" y="480" width="120" height="60" as="geometry" />
        </mxCell>
        <mxCell id="BThvKviPsCQtGSirkgmr-7" value="DataHub&lt;br&gt;数据与监控" style="rounded=0;whiteSpace=wrap;html=1;" vertex="1" parent="1">
          <mxGeometry x="400" y="240" width="120" height="60" as="geometry" />
        </mxCell>
        <mxCell id="BThvKviPsCQtGSirkgmr-8" value="NatsQueue&lt;br&gt;消息队列" style="rounded=0;whiteSpace=wrap;html=1;" vertex="1" parent="1">
          <mxGeometry x="600" y="300" width="120" height="60" as="geometry" />
        </mxCell>
        <mxCell id="BThvKviPsCQtGSirkgmr-9" value="ETCD&lt;br&gt;注册中心" style="rounded=0;whiteSpace=wrap;html=1;" vertex="1" parent="1">
          <mxGeometry x="600" y="400" width="120" height="60" as="geometry" />
        </mxCell>
        <mxCell id="BThvKviPsCQtGSirkgmr-10" value="Consule&lt;br&gt;配置中心" style="rounded=0;whiteSpace=wrap;html=1;" vertex="1" parent="1">
          <mxGeometry x="600" y="500" width="120" height="60" as="geometry" />
        </mxCell>
        <mxCell id="BThvKviPsCQtGSirkgmr-11" value="TunnelAccess&lt;br&gt;消息通道" style="rounded=0;whiteSpace=wrap;html=1;" vertex="1" parent="1">
          <mxGeometry x="600" y="600" width="120" height="60" as="geometry" />
        </mxCell>
      </root>
    </mxGraphModel>
  </diagram>
</mxfile>
